<svg width="62" height="18" viewBox="0 0 62 18" fill="none" xmlns="http://www.w3.org/2000/svg">
<path d="M9 8.225C10.4 8.39167 11.5083 8.85833 12.325 9.625C13.1583 10.3917 13.575 11.3417 13.575 12.475C13.575 13.3417 13.325 14.125 12.825 14.825C12.325 15.525 11.6333 16.0833 10.75 16.5C9.86667 16.9 8.88333 17.1 7.8 17.1C7.33333 17.1 6.8 17.075 6.2 17.025C5.96667 17.0083 5.675 16.9917 5.325 16.975C4.99167 16.9583 4.61667 16.95 4.2 16.95L2.375 16.975C2.04167 16.9917 1.59167 17 1.025 17C0.975 17 0.95 16.95 0.95 16.85C0.95 16.75 0.975 16.7 1.025 16.7C1.50833 16.7 1.875 16.6583 2.125 16.575C2.375 16.475 2.55 16.3083 2.65 16.075C2.76667 15.825 2.825 15.4583 2.825 14.975V3.4C2.825 2.7 2.70833 2.24167 2.475 2.025C2.24167 1.79167 1.76667 1.675 1.05 1.675C1.01667 1.675 1 1.625 1 1.525C1 1.425 1.01667 1.375 1.05 1.375L2.375 1.4C3.14167 1.43333 3.75 1.45 4.2 1.45C4.66667 1.45 5.15 1.425 5.65 1.375C5.81667 1.35833 6.06667 1.34167 6.4 1.325C6.73333 1.30833 7.025 1.3 7.275 1.3C8.79167 1.3 9.96667 1.575 10.8 2.125C11.6333 2.675 12.05 3.475 12.05 4.525C12.05 5.325 11.7833 6.05 11.25 6.7C10.7333 7.35 9.98333 7.85833 9 8.225ZM6.9 1.85C6.41667 1.85 6.08333 1.96667 5.9 2.2C5.71667 2.41667 5.625 2.83333 5.625 3.45V8.2L6.625 8.225C7.49167 8.225 8.15833 7.9 8.625 7.25C9.09167 6.6 9.325 5.76667 9.325 4.75C9.325 3.8 9.11667 3.08333 8.7 2.6C8.28333 2.1 7.68333 1.85 6.9 1.85ZM7.375 16.475C9.55833 16.475 10.65 15.3417 10.65 13.075C10.65 11.7917 10.3417 10.775 9.725 10.025C9.10833 9.275 8.175 8.9 6.925 8.9C6.44167 8.9 6.00833 8.91667 5.625 8.95V14.975C5.625 15.525 5.73333 15.9167 5.95 16.15C6.16667 16.3667 6.64167 16.475 7.375 16.475ZM20.1932 14.875C20.1932 15.3083 20.2265 15.625 20.2932 15.825C20.3598 16.0083 20.4848 16.1333 20.6682 16.2C20.8682 16.2667 21.1848 16.3 21.6182 16.3H22.4682C23.7682 16.3 24.8932 15.9583 25.8432 15.275C26.7932 14.575 27.4265 13.6333 27.7432 12.45C27.7432 12.4167 27.7765 12.4 27.8432 12.4C27.8765 12.4 27.9098 12.4167 27.9432 12.45C27.9932 12.4667 28.0182 12.4833 28.0182 12.5C27.8682 14.15 27.7932 15.525 27.7932 16.625C27.7932 16.7583 27.7598 16.8583 27.6932 16.925C27.6432 16.975 27.5515 17 27.4182 17H15.6182C15.5848 17 15.5682 16.95 15.5682 16.85C15.5682 16.75 15.5848 16.7 15.6182 16.7C16.1515 16.7 16.5348 16.6583 16.7682 16.575C17.0182 16.4917 17.1848 16.3333 17.2682 16.1C17.3682 15.85 17.4182 15.475 17.4182 14.975V3.4C17.4182 2.9 17.3682 2.53333 17.2682 2.3C17.1848 2.06667 17.0182 1.90833 16.7682 1.825C16.5182 1.725 16.1348 1.675 15.6182 1.675C15.5848 1.675 15.5682 1.625 15.5682 1.525C15.5682 1.425 15.5848 1.375 15.6182 1.375L16.8932 1.4C17.6598 1.43333 18.2932 1.45 18.7932 1.45C19.2932 1.45 19.9265 1.43333 20.6932 1.4L21.9682 1.375C22.0182 1.375 22.0432 1.425 22.0432 1.525C22.0432 1.625 22.0182 1.675 21.9682 1.675C21.4515 1.675 21.0682 1.725 20.8182 1.825C20.5682 1.90833 20.4015 2.075 20.3182 2.325C20.2348 2.55833 20.1932 2.925 20.1932 3.425V14.875ZM38.7662 2C38.8162 1.91667 38.8329 1.86667 38.8162 1.85C38.8162 1.81667 38.7579 1.8 38.6412 1.8C36.7412 1.8 35.2912 1.875 34.2912 2.025C33.3079 2.15833 32.4995 2.45833 31.8662 2.925C31.2329 3.375 30.6829 4.08333 30.2162 5.05C30.1995 5.06667 30.1662 5.075 30.1162 5.075C29.9662 5.075 29.8995 5.04167 29.9162 4.975L30.9162 0.624999C30.9162 0.608333 30.9495 0.6 31.0162 0.6C31.1829 0.6 31.2495 0.624999 31.2162 0.674999C31.1995 0.724999 31.1912 0.791666 31.1912 0.874999C31.1912 1.075 31.2829 1.20833 31.4662 1.275C31.6662 1.34167 32.0579 1.375 32.6412 1.375H41.7662C41.8495 1.375 41.9079 1.41667 41.9412 1.5C41.9912 1.58333 41.9912 1.65 41.9412 1.7L33.2912 16.325C33.2245 16.4083 33.1995 16.4667 33.2162 16.5C33.2329 16.5167 33.2912 16.525 33.3912 16.525H38.4412C39.0412 16.525 39.6245 16.375 40.1912 16.075C40.7579 15.7583 41.2412 15.3417 41.6412 14.825C42.0412 14.3083 42.2912 13.7583 42.3912 13.175C42.4079 13.125 42.4579 13.1 42.5412 13.1C42.6245 13.1 42.6662 13.125 42.6662 13.175L42.3162 16.8C42.3162 16.85 42.2912 16.9083 42.2412 16.975C42.2079 17.025 42.1579 17.05 42.0912 17.05C39.6079 17.0167 35.6162 17 30.1162 17C30.0495 17 29.9995 16.9667 29.9662 16.9C29.9329 16.8167 29.9412 16.7417 29.9912 16.675L38.7662 2ZM61.5529 16.7C61.6363 16.7 61.6779 16.75 61.6779 16.85C61.6779 16.95 61.6363 17 61.5529 17C61.2196 17 60.7029 16.9833 60.0029 16.95C59.2696 16.9167 58.7446 16.9 58.4279 16.9C58.0113 16.9 57.5029 16.9167 56.9029 16.95C56.3363 16.9833 55.8863 17 55.5529 17C55.4863 17 55.4529 16.95 55.4529 16.85C55.4529 16.75 55.4863 16.7 55.5529 16.7C55.9863 16.7 56.2946 16.6583 56.4779 16.575C56.6779 16.475 56.7779 16.3083 56.7779 16.075C56.7779 15.7917 56.6113 15.3167 56.2779 14.65L54.5779 11.275H48.4279L47.4529 13.45C47.2363 13.9333 47.1279 14.3833 47.1279 14.8C47.1279 15.4 47.3363 15.8667 47.7529 16.2C48.1863 16.5333 48.7613 16.7 49.4779 16.7C49.5613 16.7 49.6029 16.75 49.6029 16.85C49.6029 16.95 49.5613 17 49.4779 17C49.1779 17 48.7446 16.9833 48.1779 16.95C47.5446 16.9167 46.9946 16.9 46.5279 16.9C46.0779 16.9 45.5363 16.9167 44.9029 16.95C44.3363 16.9833 43.8779 17 43.5279 17C43.4613 17 43.4279 16.95 43.4279 16.85C43.4279 16.75 43.4613 16.7 43.5279 16.7C43.9946 16.7 44.3863 16.6083 44.7029 16.425C45.0196 16.225 45.3363 15.8833 45.6529 15.4C45.9696 14.9 46.3446 14.1667 46.7779 13.2L52.2029 1.275C52.2363 1.225 52.3113 1.2 52.4279 1.2C52.5613 1.2 52.6363 1.225 52.6529 1.275L58.9029 13.575C59.4863 14.7583 59.9696 15.575 60.3529 16.025C60.7363 16.475 61.1363 16.7 61.5529 16.7ZM48.7529 10.575H54.2029L51.3279 4.875L48.7529 10.575Z" fill="#FC6464"/>
</svg>
